<?xml version="1.0" encoding="UTF-8"?>
<svg id="Camada_2" data-name="Camada 2" xmlns="http://www.w3.org/2000/svg" viewBox="0 0 566.8 694.04">
  <defs>
    <style>
      .cls-1 {
        fill: #221a17;
      }

      .cls-2 {
        fill: #1f1613;
      }

      .cls-3 {
        fill: #5e5b5b;
      }
    </style>
  </defs>
  <g id="Camada_1-2" data-name="Camada 1">
    <path class="cls-2" d="M282.8,318c76.4,28.84,154.28,54.03,230.73,82.77l17.55.45,35.71,26.78-43.24-7.25-14.71-14.29-45.05-16.44c-.17,3.05.39,6.24-.23,9.27-.76,3.73-9.28,16.18-12.26,18.74-3.57,3.07-8.21,2.35-11.51,5.49.98,2.06,8.03.36,6.98,2.98-35.48,66.22-76.42,127.24-136.09,173.91-69.66,54.48-163.12,101.72-254.27,92.48-4.03-.41-15.72-1.82-18.88-3.12-4.04-1.66-6-15.04-6.6-19.4-4.21-30.26.39-61.19,9.57-90.14,2.65-8.36,7.56-22.88,11.78-30.22.27-.48,1.47-1.66,1.51-.49-1.78,25.99-2.96,54.87,11.17,77.82,1.47,2.39,11.05,15.83,13.82,13.67-18.31-22.17-22.32-53.45-20.99-81.48,1.11-23.34,9.52-46.21,20.12-66.88.68-1.32,1.23-3.23,2.86-3.63-.58,12.2,1.34,24.23,3.29,36.22l5.71,14.77c-3.23-18.62-3.94-37.53-1.86-56.37,2.93-26.51,17.54-50.1,19.86-76.14,1.29-14.53-2.52-32.14-4.98-46.48,2.39-.53,4.65.51,6.79.71,1.1.1,3.4,1.18,3.2-.7l-17.56-5.94c-1.33-5.21-5.41-7.95-7.61-12.39-5.18-10.45-3.07-22.71,1.32-33.04,1.56-3.67,7.54-11.88,7.84-14.23.77-5.96-4.06-7.17-4.69-10.05-.2-.93.87-2.33.27-3.35-1.76-2.97-45-20.74-52.23-24.83-14.79-8.35-32.42-22.35-38.09-38.91-3.15-9.2-4.17-23.4,8.35-25.17,7.38-1.04,22.81.38,30.9.92,30.93,2.05,45.48,9.03,73.51,16.49,8.6,2.29,28.6,5.66,35.97-.02,4.25-3.28-.04-5.34.02-9.48-4.46-.1-4.5,4.7-9.72,5.77-8.59,1.76-33.26-8.04-36.51-16.02-3.72-9.12,3.13-12.14,5.98-18.51,7.11-15.85-5.25-36.7,4.82-51.18,6.01-8.63,16.33-13.31,25.77-6.89,6.71,4.57,4.13,7.28,4.79,14.21.11,1.12.46,5.5,1.86,5.62,2.02-11.22,2.8-22.95,10.5-32,6.52-7.66,30.94-23.87,41.01-24.07,5.58-.11,12.23,3.09,18,3.15,5.37.06,8.99-3.35,14.55-1.63,9.89,3.07,7.71,1.81,17.43,1.49,10.6-.36,11.07,6.98,16.54,13.54,2.73,3.27,9.94,8.55,10.77,12.24s.22,10-4.79,9.28c3.26-13.29-13.67-10.03-17.24-18.26-2.38-5.48.87-9.49-8.15-8.64-5.38.51-10.2,3.93-15.61,4.4,3.53,3.25,9.67-.98,13.58-1.42,10.48-1.19,5.11,6.53,9.44,10.4,2.76,2.47,11.31,3.11,14.48,6.51,1.53,2.51.24,8.85-2.01,11.01-1.3-3.26-1.22-6.35-4.57-8.41-4.78-2.94-9.72.59-15.92-2.09-7.2-3.1-5.08-9.97-16.67-4.67-5.83,2.66-9.27,9.51-16.8,9.22-3.88-.15-9.25-4.44-12.59-.61-1.15,1.31-5.32,9.74,0,7.5.13-7.42,9.18-2.43,14.1-3.33,6.67-1.23,12.2-9.69,19.47-9.7,5.07,0,6.13,3.14,10.21,4.89,8.74,3.74,19.48-1.05,18.3,11.71-.54,5.82-1.87,17.43-3.3,22.7-2.58,9.54-9.55,12.26-11.91,19.09-2.11,6.1-1.41,12.66-3.3,18.69-1.47,4.68-5.06,8.71-7.49,12.01h-1c3.68-8.75,8.05-17.09,6.99-26.99-5.49-.16-12.78-.98-13.85-7.38,4.95-6.96,11.92-3.63,18.87-4.11,8.82-14.08,10.58-33.95-12.34-28.6-6.6,6.88,1.61,18.4-.81,25.44-.64,1.87-4.14,1.9-5.85,3.14-5.91,4.32-9.44,25.75-7.57,32.57.79,2.89,6.53,2.83,4.56,4.9-1.16,1.22-12.12.33-10.53,4.01l3.53,4.99c-4.95-1.08-5.58,3.51-11,2,1.01,5.28-1.44,7.34-4.99,10.51l6,.49c.06,1.63-.4,3.49.5,5,1.01,1.71,10.86,8.2,12.03,9.98.56.84.84,1.2,0,2.05l-32.26,37.83c-3.02.82-5.53-2.07-8.62-3.01-15.21-4.57-32.61-5.7-47.65-10.85s-31.66-17.37-46-26c-2.11-1.27-4.74-3.71-7.31-5.19-2.16-1.25-5.84-1.15-5.71-3.8-1.44-.38-1.26,1.7-1.03,2.41.25.78,12.14,7.27,14.04,8.58,15.95,11.03,27.35,20.97,46,28,8.77,3.31,29.15,9.55,38,9,.48,1.39,1.96.84,3,1,3.14.47,13.65,5.27,15.7,7.3.35.34,3.67,7.36,4.3,8.7.24.51-.53,2.02.5,2.01.91,0,.42-1.23.5-2.01.16-1.51-.86-3.49,1.49-3.01,10.53,2.94,21.85,9.56,32.51,11.01.43,1.44,1.57,1.92,3,2,1.66,2,44.68,16.4,49,17,.44,1.86,1.78,1.54,3,2ZM195.8,160.01c5.13,4.65,5.04,13.43,7.78,18.71,3.82,7.38,6.97-5.67,4.47-11.47-1.06-2.46-10.53-8.58-12.25-7.24ZM171.68,306.13l-5.84-1.09-36.03,144.96,41.87-143.87ZM260.81,499.99c29.19,12.77,58.92,6.06,85.67-8.81,23.22-12.92,67.82-49.31,72.87-76.12,2.95-15.66-18.35-27.46-29.87-34.22-33.54-19.69-73.17-30.94-108.69-49.31-7.87-4.07-18.78-11.73-26.26-14.74-1.58-.64-3-.98-4.72-.77l2,2.98c-21.03-1.13-15.87,24.25-24.59,34.92-2.6,3.18-6.31,6.15-10.4,7.1.44,2.75,6.58-.51,6.99,0-2.91,7.44,8.19,13.03,7.07,18.32-.14.68-6.74,3.5-6.97,11.27-.41,13.46,23.73,60.71,32.93,71.88,2.91,3.53,6.91,6.57,9.97,10.03-7.02.75-13.48-6.46-19.44-9.56-.94-.49-2.84-1.84-3.55-.45,8.8,9.53,20.34,16.09,32.48,20.52,15.58,5.68,33.29,10.46,50,8.97,5.24-.47,10.21-2.83,15.51-2.97-.28,1.34-3.13,2.55-4.33,3.15-13.78,6.91-32.73,11.33-48.21,10.87-8.4-.25-16.99-3.16-24.97-4.03-1.05-.11-3.75-.71-3.48.98ZM127.8,455c-.65,1.55-5.43,16.04-2.5,16.01,1.6-5.18,3.94-10.55,4.5-16.01.1-.98-.05-2.02,0-3-1.84.2-1.54,1.92-1.99,3Z"/>
    <path class="cls-1" d="M370.8,344c-2.03-1.76-21.66-7-25.96-8.54-45.99-16.46-92.05-33.22-138.04-49.96-4.61-1.68-17.1-2.81-13.49-10.48l58.97-70.03L439.78.48l3.01-.48c6.89,22.48,19.26,42.8,27.76,64.75,39.31,101.48,30.7,210.04-4.85,311.17l-23.92-6.44c21.36-48,35.87-99.24,39.01-152,4.28-72.12-11.83-144.12-39-210.49l-208.95,227.56c-.52,2.31,8.24,5.3,10.28,6.61,20.98,13.44,37.72,37.07,56.74,49.26,4.15,2.66,9.28,4.23,13.85,7.15,18.8,12.04,38.44,31.48,57.09,45.41v1Z"/>
    <path class="cls-3" d="M234.8,197h1c-.17.23-.3,1.52-.94,2.51-1.39,2.14-6.11,6.16-8.55,7.5-1.67-1.01.33-2.21.99-3.01,2-2.44,4.61-6.44,7.5-7Z"/>
  </g>
</svg>