<?xml version="1.0" encoding="UTF-8"?>
<svg id="Camada_2" data-name="Camada 2" xmlns="http://www.w3.org/2000/svg" viewBox="0 0 286.64 373.86">
  <defs>
    <style>
      .cls-1 {
        fill: #261e1d;
      }

      .cls-2 {
        fill: #1c0e0b;
      }

      .cls-3 {
        fill: #1d0f0d;
      }

      .cls-4 {
        fill: #201311;
      }
    </style>
  </defs>
  <g id="Camada_1-2" data-name="Camada 1">
    <path class="cls-3" d="M115.64,141.15c.69-.12,1.53.08,2.25,0,5.57,3.75,10.98,7.65,16.11,12.02s9.88,10.08,15.04,14.21c10.8,8.63,24.39,15.67,34.78,25.97.79.78,1.91,1.07,1.57,2.55-.47.44-9.15-3.47-10.68-4.02-19.33-6.89-41.83-14.2-59.66-20.5-4.17-1.47-10.32-5.11-14.4-3.98-.4.11-1.03-.08-1.5,0,.06-.25-.08-.55,0-.75.02-.06.93-.06.71-.69l-2.85-2.83,16.8-21.22c.46-.7,1.13-.63,1.84-.75Z"/>
    <path class="cls-4" d="M235.63,213.15l-11.92-4.19c26.51-56.68,24.99-121.43,1.44-178.81,1.54-.32,1.74.76,2.39,1.73,1.51,2.24,3.25,6.4,4.49,9.01,26.24,55.56,23.66,115.14,3.61,172.26Z"/>
    <path class="cls-1" d="M115.64,141.15L223.26,22.63c1.51-.53,1.92,3.19,1.52,3.78l-3.03.65-103.86,114.09c-.72.08-1.56-.12-2.25,0Z"/>
    <path class="cls-2" d="M134.39,7.65c-.2.33-2.22,1.67-2.98,2.65-3.13,4.02-6.32,8.02-9.02,12.35,1.83.4,1.91-.31,2.89-1.23,3.43-3.19,6.61-9.69,9.86-13.01,1.58-1.62,5.77-4.86,7.97-5.02l16.03,3.9c-.08,2.82-12.94,9.29-15.7,11.31-11.49,8.39-35.81,26.15-24.97,42.84,3.08,4.75,4.95,1.38,8.71,1.72s9.65,10.69,12.89,13.48c1,3.2-1.52,3.75-2.7,5.27,2.52-5.9-1.73-5.3-4.5-6.75-4.52-2.37-3.53-4.08-6.01-7.92-1.23-.63-8.86.81-7.88,3.4,9.74-3.8,6.09.17,8.56,3.46.98,1.31,3.33,1.23,4.57,1.8,3.63,1.68,4.58,2.66,3,6.75-.05,0-.32.71-.71.76-.64-7.38-5.87-4.19-10.02-5.41-2.91-.85-2.37-5.08-8.19-2.65-2.68,1.12-5.28,4.73-2.09,3.17,7.02-3.43,4.43-.36,9.89,1.38,2.45.78,7.56.13,8.14,3.12.4,2.08-.98,12.48-1.73,14.79-1.28,4-4.02,4.99-5.42,8.08-1.7,3.77-.17,10.16-4.12,11.25l1.39-8.14c-1.61-.77-3.51-1-5.15-1.6v-1.5s-1.5,0-1.5,0c-.13-.38-.77-.89-.75-1.5,3.1-2.31,6.83-1.2,10.38-1.63,1.74-4.57,5.86-12.35-.48-14.62-11.75-4.21-5.73,8.15-6.86,12.75-.22.89-2.22.84-3.05,1.62-.77.72-.51,1.47-.73,1.87-1.79,3.27-4.07,11.04-2.89,14.55.48,1.42,2.84.58,2.14,2.7-1.22-.48-5.69.44-4.9,2.25l1.9,2.24c-6.66-.75-4.9,4-8.98,7.14l3.73-.39c-1.93,2.95,6.72,7,6.74,7.88-3.03,2.47-15.23,19.91-17.6,19.88-2.61-2.11-4.97-1.52-7.58-2.12-7.35-1.7-14.63-3.94-22.05-5.38-1.92,1.66,6.12,3.92,6.75,4.12,7.39,2.25,22.04,1.52,25.5,10.13.36.91.49,5.25,1.12,5.26.11-1.96.71-3.53,1.13-5.26.47-.08,1.1.11,1.5,0,1.43.87,3.17.96,4.68,1.56,24.32,9.61,48.94,18.49,74.44,27.71,24.21,8.75,49.11,18.31,73.5,26.25,2.42.79,6.94,2.77,9.11,2.96,2.33.2,4.12-1.09,6.31-.42,1.12.34,13.77,9.85,15.67,11.39.85.69,1.96,1.49,2.31,2.56-5.83-2.12-17.28-1.73-22.3-4.26-1.68-.85-4.21-5.53-7.17-7.14-6.13-3.32-15.82-4.74-22.27-8.1.06,7.36-5.8,17.34-14.25,15.76l5.24,2.61c-16.21,29.96-34.84,59.95-61.14,82.11-34.95,29.46-84.92,56.19-131.97,53.26-2.72-.17-13.7-1.31-14.97-3.03-.63-.86-1.41-3.82-1.7-5.05-4.94-20.98,1.93-46.25,10.66-65.42l-.4,17.66c.72,2.61.48,5.43.96,8.04.2,1.09,4.78,17.54,7.32,14.8-.28-3.4-2.18-5.91-3.09-9.28-2.34-8.7-2.77-20.37-2.19-29.37.77-11.99,6.28-20.97,10.54-31.84,1.23-.2.7,1.01.74,1.85.2,4.23.3,8.37.96,12.56l2.78,8.83c-.79-8.87-1.05-17.75.02-26.61,1.51-12.58,8.36-23.82,9.66-36.09.85-7.98-.54-16.85-2.18-24.66l2.26-1.88c-1.67-.2-4.81-.76-5.99-1.9-.95-.92-4.99-8.32-5.22-9.78-.35-2.18-.24-6.57.13-8.78.84-4.94,7.56-11.06,4.98-15.12-5.16-8.09-19.57-11.16-28.16-16.06-9.18-5.23-21.58-15.73-19.7-27.46,1.23-7.66,11.71-4.4,16.84-4.17,19.67.85,25.76,4.84,43.1,8.65,4.97,1.09,21.71,3.27,15.4-5.63-4.45,6.7-13.62,2.05-18.9-1.37-13.16-8.54,9.96-20.14,10.15-29,.04-1.79-1.21-4.27-.63-6.39l-.75,7.49c-9.76-3.34-13.23,4.91-16.87,11.99-1.6-1.41-1.99-3.34-2.62-5.24-.47-1.4-1.7-8.69-2.63-9-1.79-.61-.96,1.45-.79,2.3.46,2.27,1.3,4.49,1.93,6.7.54,1.89,3.65,10.36,2.99,11.25-25.13-32.86-15.96-76.97,19.75-97.63C81.04,6.98,101.44.91,117.49.11c4.2-.21,22.02-.98,16.91,7.53ZM102.89,51.16c-22.74-16.38-53.45,2.34-40.48,29.98,1.27.21.81-1.81.68-2.56-.32-1.84-1.25-3.33-1.45-5.31-2.06-20.14,15.61-31.01,33.75-23.99,1.76.68,7.92,5.49,7.5,1.88ZM111.89,78.9c-.64-.54-2.84,1.41-4.1,1.43-1.77.03-3.93-2.01-5.9-1.36l-2,2.92c2.99-1.25,5.79.43,8.57,0,.61-.1,4.72-1.88,3.42-2.98ZM102.9,114.14c5.91-1.96,2.61-10.52-3-9.74l3,9.74ZM48.89,144.15c-2-1.24-4.65-5.31-8.25-4.49,1.91,2.29,5.09,3.64,7.5,5.24,3.02,2.02,6.06,4.63,9.08,6.3s4.89,1.29,2.01-1.28c-2.26-2.02-7.39-3.95-10.33-5.77ZM87.12,177.19c-1.9-.63-3.12-1.47-3.8,1.02l-15.68,61.94,2.3-1.82,17.17-61.14ZM170.39,273.15c12.1-5.86,23.31-14.23,32.27-24.36,4.84-5.47,12.06-14.53,8.52-22.07-5.49-11.71-42.57-23.68-54.8-29.2-10.28-4.63-19.75-11.16-30.24-15.13l1.49,1.49c-11.61-.39-7.78,13.36-14.22,19.16-1.33,1.2-3.17,1.29-3.77,2.59,5.7-.62,2.77.78,4.13,3.75.44.96,2.18,1.58,2.52,2.79.76,2.73-1.89,3.37-2.56,5.42-1.54,4.73,2.11,12.55,4.03,17.05,4.01,9.39,9.41,19.64,16.62,26.87l-8.23-2.26c12.83,9.46,30.67,14.93,46.49,10.89-.04.63-2.62,2.09-3,2.24-9.6,3.9-20.07,4.99-30.28,3.66-2.11-.28-5.47-2.52-6.47.08,11.87,4.78,24.74,3.68,36.22-1.67.82-.38,1.15-1.25,1.28-1.32ZM39.14,346.64c.78-.8-3.01-5.29-4.49-5.25-.94,1.76,3.66,6.09,4.49,5.25Z"/>
  </g>
</svg>